<?xml version="1.0" encoding="UTF-8"?>
<svg width="400px" height="400px" viewBox="0 0 400 400" version="1.1" xmlns="http://www.w3.org/2000/svg" xmlns:xlink="http://www.w3.org/1999/xlink">
    <!-- Generator: Sketch 59.1 (86144) - https://sketch.com -->
    <title>img_logo</title>
    <desc>Created with Sketch.</desc>
    <g id="img_logo" stroke="none" stroke-width="1" fill="none" fill-rule="evenodd">
        <g id="MongoDB_Leaf_FullColor_RGB" transform="translate(119.000000, 20.000000)" fill-rule="nonzero">
            <path d="M158.465753,143.572603 C139.561644,60.1726027 100.109589,37.9643836 90.0986301,22.2657534 C84.6575342,13.7260274 79.109589,0.747945205 79.109589,0.747945205 C78.5671233,8.14520548 77.6054795,12.830137 71.2931507,18.4520548 C58.6520548,29.7205479 4.93150685,73.4958904 0.419178082,168.263014 C-3.7890411,256.619178 65.3506849,311.112329 74.539726,316.742466 C81.5589041,320.194521 90.1561644,316.808219 94.2657534,313.643836 C127.586301,290.761644 173.169863,229.750685 158.424658,143.572603" id="Path" fill="#10AA50"></path>
            <path d="M81.969863,269.679452 C80.2356164,291.558904 78.9863014,304.290411 74.5726027,316.767123 C74.5726027,316.767123 77.4821918,337.586301 79.5041096,359.646575 L86.7123288,359.646575 C88.4330207,344.109353 91.0594075,328.685848 94.5780822,313.454795 C85.2410959,308.876712 82.3232877,288.871233 81.969863,269.679452 Z" id="Path" fill="#B8C4C2"></path>
            <path d="M94.569863,313.471233 L94.569863,313.471233 C85.1342466,309.115068 82.4054795,288.706849 81.9863014,269.679452 C84.3110646,238.309143 84.9832271,206.838222 84,175.39726 C83.5068493,158.90137 84.2465753,22.5863014 79.939726,2.63013699 C81.6821918,6.53424658 85.890411,15.7068493 90.0986301,22.2575342 C100.150685,37.9643836 139.569863,60.1726027 158.457534,143.580822 C173.178082,229.536986 127.865753,290.441096 94.569863,313.471233 Z" id="Path" fill="#12924F"></path>
        </g>
    </g>
</svg>